<?xml version="1.0" encoding="UTF-8"?>
<svg xmlns="http://www.w3.org/2000/svg" viewBox="0 0 418 107" width="418" height="107">
<path d="M41.52 0.08C46.49 0.08 51.46 0.08 56.42 0.08C58.7 1.74 64.96 2.03 68.08 3.23C74.85 5.83 80.98 9.97 85.92 15.34C104.43 35.49 102.71 79.71 80.41 96.66C73.99 101.54 66.81 104.1 59 105.74C55.84 106.41 52.39 105.59 49.44 106.92C48.82 106.92 48.2 106.92 47.58 106.92C45.79 105.33 41.72 106.18 39.34 105.81C33.88 104.95 28.43 103.29 23.55 100.69C13.88 95.53 6.72 86.35 3.22 76.08C1.88 72.12 1.9 67.2 0.08 63.53C0.08 56.85 0.08 50.17 0.08 43.49C1.67 40.93 1.35 36.9 2.24 33.95C4.47 26.65 8 19.22 13.46 13.71C17.98 9.15 23.81 5.27 29.87 3.18C33.4 1.96 38.45 1.93 41.52 0.08ZM207.99 2.15C212.55 1.73 218.89 0.99 223.03 3.25C228.05 6 228.17 11.22 228.17 16.25C228.17 25.58 228.17 34.92 228.17 44.25C228.17 59.7 231.97 84.86 218.58 95.81C213.82 99.71 207.84 101.62 202.07 103.3C197.3 104.69 191.75 105.26 186.77 104.83C158.55 102.35 150.87 77.58 155.79 52.61C158.54 38.65 167.31 24.98 182.75 23.52C188.78 22.95 195.4 23.89 200.49 27.27C203.25 29.1 205.26 32.51 207.99 33.93C207.99 23.34 207.99 12.74 207.99 2.15ZM46.32 18.62C23.61 21.51 18.27 43.47 21.8 63.37C23.19 71.17 26.21 78.99 33.04 83.7C39.22 87.96 46.89 88.81 54.25 87.9C65.08 86.57 72.17 77.72 75.27 68C81.83 47.37 73.47 15.17 46.32 18.62ZM303.75 69.85C287.17 69.85 270.59 69.85 254.01 69.85C253.41 81.6 263.2 90.67 275.06 86.76C279.57 85.27 281.51 80.48 286 79.26C289.88 78.21 299.13 78.5 303.11 79.25C303.63 82.38 300.88 86.88 299.23 89.46C291.89 100.93 278.48 105.63 265.26 104.83C242.05 103.42 232.83 84.77 232.83 63.75C232.83 56.6 233.44 49.61 236.25 42.97C248.27 14.57 293.19 17.36 302.17 46.65C303.81 51.98 306.75 65.02 303.75 69.85ZM353.15 25.25C353.15 32.08 353.15 38.92 353.15 45.75C347.32 46.81 341.6 45.28 336.17 48.43C330.12 51.94 329.85 59.58 329.85 65.75C329.85 77.73 331.17 91.37 329.66 103.14C322.86 103.14 316.05 103.14 309.25 103.14C307.87 95.61 308.99 86.92 308.99 79.25C308.99 59.91 308.08 38.37 328.86 29.14C332.65 27.46 336.58 26.41 340.69 25.81C344.81 25.21 349.01 24.5 353.15 25.25ZM150.15 25.99C150.15 32.91 150.15 39.83 150.15 46.75C144.29 47.82 138.53 46.13 133.09 49.36C127.02 52.95 126.85 60.52 126.85 66.75C126.85 75.08 126.85 83.42 126.85 91.75C126.85 95.71 127.39 100.13 126.58 104C119.8 104 113.03 104 106.25 104C104.79 96.76 105.99 88.15 105.99 80.75C105.99 61.02 104.88 38.63 126.58 29.78C129.87 28.44 133.19 27.35 136.74 26.86C141.22 26.24 145.59 25.62 150.15 25.99ZM404.09 32.06C404.09 35.27 404.09 38.49 404.09 41.7C401.55 42.45 392 46.11 391.18 48.25C393.06 49.99 401.11 48.72 404.1 49.25C404.1 52.1 404.1 54.96 404.1 57.81C392.92 57.81 381.75 57.81 370.57 57.81C370.57 54.96 370.57 52.1 370.57 49.25C373.96 48.76 380.89 50.42 383.46 48.25C382.31 45.8 373.39 43.04 370.54 41.69C370.54 38.65 370.54 35.61 370.54 32.58C375.9 32.95 382.65 39.43 387.26 39.55C391.01 39.64 399.45 32.82 404.09 32.06ZM189.39 41.23C168.27 44.37 169.82 89.69 193.25 87.46C215 85.38 212.94 37.72 189.39 41.23ZM282.99 56.13C283.52 35.11 253.24 35.98 254.01 56.13C263.67 56.13 273.33 56.13 282.99 56.13ZM370.56 86.76C370.56 84.21 370.56 81.66 370.56 79.11C374.76 77.19 385.28 78.5 390.25 78.5C393.15 78.5 396.7 78.54 396.83 74.75C396.95 70.72 393.32 70.5 390.25 70.5C383.82 70.5 376.96 71.16 370.6 70.25C370.6 67.58 370.6 64.92 370.6 62.25C375.2 61.58 380.1 62 384.75 62C394.89 62 404.76 60.88 404.99 74.25C405.24 88.41 394.28 87.16 383.75 87.16C379.47 87.16 374.72 87.73 370.56 86.76ZM398.82 90.14C404.62 88.56 407.43 97.11 401.93 98.69C396.31 100.31 393.45 91.6 398.82 90.14Z" fill="#04091f" fill-rule="evenodd" stroke="#04091f" stroke-width="0.25" stroke-linejoin="round"/>
<path d="M417.92 24.98C417.92 51.01 417.92 77.03 417.92 103.06C398.03 103.04 378.14 103.03 358.25 103.02C358.17 77.09 358.08 51.17 358 25.25C377.97 25.16 397.94 25.07 417.92 24.98ZM404.09 32.06C399.45 32.82 391.01 39.64 387.26 39.55C382.65 39.43 375.9 32.95 370.54 32.58C370.54 35.61 370.54 38.65 370.54 41.69C373.39 43.04 382.31 45.8 383.46 48.25C380.89 50.42 373.96 48.76 370.57 49.25C370.57 52.1 370.57 54.96 370.57 57.81C381.75 57.81 392.92 57.81 404.1 57.81C404.1 54.96 404.1 52.1 404.1 49.25C401.11 48.72 393.06 49.99 391.18 48.25C392 46.11 401.55 42.45 404.09 41.7C404.09 38.49 404.09 35.27 404.09 32.06ZM370.56 86.76C374.72 87.73 379.47 87.16 383.75 87.16C394.28 87.16 405.24 88.41 404.99 74.25C404.76 60.88 394.89 62 384.75 62C380.1 62 375.2 61.58 370.6 62.25C370.6 64.92 370.6 67.58 370.6 70.25C376.96 71.16 383.82 70.5 390.25 70.5C393.32 70.5 396.95 70.72 396.83 74.75C396.7 78.54 393.15 78.5 390.25 78.5C385.28 78.5 374.76 77.19 370.56 79.11C370.56 81.66 370.56 84.21 370.56 86.76ZM398.82 90.14C393.45 91.6 396.31 100.31 401.93 98.69C407.43 97.11 404.62 88.56 398.82 90.14Z" fill="#f98908" fill-rule="evenodd" stroke="#f98908" stroke-width="0.25" stroke-linejoin="round"/>
</svg>